<?xml version="1.0" standalone="no"?>
<!DOCTYPE svg PUBLIC "-//W3C//DTD SVG 20010904//EN"
 "http://www.w3.org/TR/2001/REC-SVG-20010904/DTD/svg10.dtd">
<svg version="1.0" xmlns="http://www.w3.org/2000/svg"
 width="153.000000pt" height="221.000000pt" viewBox="0 0 153.000000 221.000000"
 preserveAspectRatio="xMidYMid meet">

<g transform="translate(0.000000,221.000000) scale(0.100000,-0.100000)"
fill="#000000" stroke="none">
<path d="M667 2102 c-42 -42 -77 -81 -77 -86 0 -11 131 -146 154 -158 16 -8
31 2 97 68 44 43 79 83 79 89 0 13 -152 165 -165 165 -6 0 -45 -35 -88 -78z
m148 -32 l49 -50 -54 -55 -54 -55 -53 52 -53 52 52 53 c29 29 55 53 58 53 3 0
28 -23 55 -50z"/>
<path d="M160 2051 c0 -10 25 -101 55 -202 l54 -183 98 -98 98 -98 -103 -103
c-56 -56 -102 -108 -102 -114 0 -7 -22 -86 -50 -177 -54 -179 -57 -194 -36
-202 7 -3 88 18 180 45 92 28 172 51 179 51 7 0 59 47 117 105 l105 105 105
-105 c58 -58 111 -105 117 -105 7 0 86 -23 177 -50 91 -27 172 -50 180 -50 24
0 20 42 -13 145 -16 50 -39 126 -51 170 -21 79 -23 82 -123 183 l-102 102 102
103 102 102 31 105 c89 298 88 290 52 290 -9 0 -91 -23 -181 -50 -90 -28 -168
-50 -175 -50 -6 0 -58 -47 -116 -105 l-105 -105 -105 104 -105 103 -172 52
c-191 57 -213 60 -213 32z m266 -98 c35 -9 64 -20 64 -23 0 -9 -189 -194 -193
-189 -2 2 -13 38 -25 79 l-22 74 42 43 c24 24 49 41 56 38 7 -3 42 -13 78 -22z
m796 -10 c21 -20 38 -43 38 -51 0 -25 -42 -152 -50 -152 -9 0 -184 189 -179
194 3 2 131 41 149 45 2 1 21 -16 42 -36z m-547 -173 l129 -129 -24 -26 -24
-26 -69 68 c-38 38 -96 99 -129 136 -59 66 -60 68 -43 87 10 11 21 20 24 20 4
0 65 -58 136 -130z m323 107 l22 -23 -90 -89 -89 -89 -26 24 -26 24 88 88 c48
48 90 88 94 88 3 0 15 -10 27 -23z m87 -737 l-25 -25 -327 327 -327 327 24 26
24 26 328 -328 328 -328 -25 -25z m-1 654 l19 -26 -131 -131 -131 -131 -26 24
-26 24 133 133 c73 73 135 133 138 133 3 0 13 -12 24 -26z m-579 -194 l129
-129 -24 -26 -24 -26 -133 133 -133 132 22 23 c12 13 24 23 27 23 4 0 65 -58
136 -130z m663 107 l22 -23 -90 -89 -89 -89 -26 24 -26 24 88 88 c48 48 90 88
94 88 3 0 15 -10 27 -23z m-3 -477 l-25 -25 -132 132 -132 132 24 26 24 26
133 -133 133 -133 -25 -25z m-637 177 l22 -23 -90 -89 -89 -89 -26 24 -26 24
88 88 c48 48 90 88 94 88 3 0 15 -10 27 -23z m170 0 l22 -23 -133 -132 -133
-133 -24 26 -24 26 129 129 c71 72 132 130 136 130 3 0 15 -10 27 -23z m297
-347 l-25 -25 -132 132 -132 132 24 26 24 26 133 -133 133 -133 -25 -25z
m-297 177 l22 -23 -90 -89 -89 -89 -26 24 -26 24 88 88 c48 48 90 88 94 88 3
0 15 -10 27 -23z m-298 -132 c65 -65 89 -96 79 -100 -8 -3 -44 -14 -80 -24
l-67 -19 -40 42 -41 41 22 78 c12 42 24 77 27 77 3 0 48 -43 100 -95z m840 26
c11 -37 20 -72 20 -77 -1 -5 -18 -28 -39 -51 l-38 -42 -83 25 -83 26 94 94
c51 52 97 94 101 94 4 0 16 -31 28 -69z"/>
<path d="M122 1557 c-39 -40 -72 -79 -72 -87 0 -20 141 -160 160 -160 20 0
160 140 160 160 0 20 -141 160 -160 160 -9 0 -48 -33 -88 -73z m143 -37 l50
-50 -53 -53 -52 -52 -52 52 -53 53 50 50 c27 27 52 50 55 50 3 0 28 -23 55
-50z"/>
<path d="M1212 1557 c-39 -40 -72 -79 -72 -87 0 -20 141 -160 160 -160 9 0 51
36 95 80 l80 80 -80 80 c-44 44 -86 80 -95 80 -9 0 -48 -33 -88 -73z m151 -35
l47 -48 -55 -54 -55 -55 -52 53 -53 52 50 50 c27 27 54 50 60 50 6 0 32 -22
58 -48z"/>
<path d="M678 1023 c-104 -101 -103 -92 -12 -184 43 -44 83 -79 89 -79 13 0
165 152 165 165 0 12 -152 165 -164 165 -4 0 -39 -30 -78 -67z m134 -155 l-52
-53 -55 55 -55 54 52 53 53 53 55 -55 55 -55 -53 -52z"/>
<path d="M270 395 l0 -145 30 0 29 0 3 103 c2 59 7 102 13 102 6 0 11 -43 13
-102 l3 -103 29 0 30 0 0 109 c0 86 -3 113 -16 125 -19 19 -60 21 -67 4 -3 -7
-6 2 -6 20 -1 29 -4 32 -31 32 l-30 0 0 -145z"/>
<path d="M90 489 c0 -12 8 -23 20 -26 18 -5 20 -14 20 -109 l0 -104 30 0 30 0
0 105 c0 87 3 105 15 105 9 0 15 9 15 25 0 24 -2 25 -65 25 -59 0 -65 -2 -65
-21z"/>
<path d="M660 485 c0 -18 5 -25 20 -25 19 0 20 -7 20 -105 l0 -105 25 0 25 0
0 105 c0 98 1 105 20 105 15 0 20 7 20 25 0 24 -2 25 -65 25 -63 0 -65 -1 -65
-25z"/>
<path d="M494 486 c-16 -13 -19 -27 -19 -111 0 -110 9 -125 76 -125 44 0 69
27 69 72 0 24 -4 28 -29 28 -25 0 -30 -4 -33 -27 -4 -39 -23 -30 -23 10 0 31
2 32 43 35 l42 3 0 42 c0 60 -22 87 -69 87 -20 0 -46 -6 -57 -14z m66 -62 c0
-26 -17 -33 -26 -9 -8 20 3 48 16 40 5 -3 10 -17 10 -31z"/>
<path d="M857 483 c-21 -25 -31 -83 -22 -148 8 -66 24 -85 74 -85 46 0 71 24
71 68 0 28 -4 32 -25 32 -16 0 -28 -7 -31 -17 -16 -49 -16 -49 -23 -29 -4 11
-6 30 -3 43 4 19 10 23 43 23 l39 0 0 48 c0 35 -5 54 -18 65 -25 22 -85 22
-105 0z m63 -59 c0 -23 -14 -32 -24 -16 -8 13 5 52 15 46 5 -3 9 -16 9 -30z"/>
<path d="M1046 481 c-10 -11 -16 -28 -14 -38 4 -23 46 -30 54 -9 8 21 24 20
24 -1 0 -10 -16 -27 -38 -38 -34 -18 -37 -24 -40 -68 -4 -65 7 -75 79 -76 l59
0 0 108 c0 92 -3 110 -18 124 -26 23 -85 22 -106 -2z m64 -146 c0 -19 -4 -35
-10 -35 -5 0 -10 16 -10 35 0 19 5 35 10 35 6 0 10 -16 10 -35z"/>
<path d="M1230 375 l0 -125 30 0 29 0 3 103 c2 59 7 102 13 102 6 0 11 -43 13
-102 l3 -103 29 0 30 0 0 99 c0 55 4 102 9 105 14 9 21 -32 21 -121 l0 -83 30
0 30 0 0 98 c0 58 -5 107 -13 122 -14 28 -50 38 -72 20 -9 -7 -15 -8 -20 0 -9
14 -62 13 -68 -2 -4 -10 -6 -10 -6 0 -1 7 -14 12 -31 12 l-30 0 0 -125z"/>
</g>
</svg>
